M48
;GenerationSoftware,Autodesk,EAGLE,9.6.2*%
;CreationDate,2023-11-28T13:28:21Z*%
FMAT,2
ICI,OFF
METRIC,TZ,000.000
T12C0.300
T11C0.350
T10C0.800
T9C0.950
T8C1.100
T7C1.118
T6C1.200
T5C1.310
T4C1.321
T3C1.397
T2C1.499
T1C3.000
%
G90
M71
T1
X3000Y77000
X77000Y77000
X77000Y3000
X3000Y3000
T2
X74426Y67901
X74426Y52661
T3
X4700Y44940
X37524Y75400
X75357Y8853
X75357Y13933
X75357Y19013
X15740Y75400
X4710Y23110
X32444Y75400
X27364Y75400
X10660Y75400
X4700Y56540
X4700Y51460
X22284Y75400
X4700Y39860
X69471Y75405
X4710Y33270
X4710Y28190
X4710Y18030
X49151Y75405
X64391Y75405
X59311Y75405
X54231Y75405
X42604Y75400
T4
X74400Y24885
X74400Y47389
T5
X18000Y55240
X18000Y52700
X18000Y50160
X18000Y39800
X18000Y37260
X18000Y42340
T6
X27841Y65346
X9000Y7360
X12700Y31840
X34075Y60264
X12700Y29300
X2850Y7340
X2850Y9880
X2850Y12420
X12700Y26760
X12700Y22940
X12700Y20400
X12700Y17860
X27841Y62806
X40386Y60244
X40386Y62784
X40386Y65324
X46577Y65345
X9000Y9900
X34075Y62804
X34075Y65344
X27841Y60266
X9000Y12440
X46577Y60265
X46577Y62805
T7
X12350Y57730
X12320Y35040
X12350Y47570
X12320Y45200
T8
X65309Y41468
X65309Y44008
X65309Y46548
X65309Y49088
X65309Y51628
X53879Y3598
X56419Y3598
X58959Y3598
X47529Y13528
X47529Y51628
X47529Y49088
X47529Y46548
X47529Y44008
X47529Y41468
X47529Y38928
X47529Y36388
X47529Y33848
X47529Y31308
X47529Y28768
X47529Y26228
X47529Y23688
X47529Y21148
X47529Y18608
X47529Y16068
X47529Y10988
X47529Y8448
X47529Y5908
X47529Y3368
X65309Y3368
X65309Y5908
X65309Y8448
X65309Y10988
X65309Y13528
X65309Y16068
X65309Y18608
X65309Y21148
X65309Y23688
X65309Y26228
X65309Y28768
X65309Y31308
X65309Y33848
X65309Y36388
X65309Y38928
T9
X37633Y2342
X30833Y2342
T10
X18890Y28510
X18890Y25970
X18890Y23430
X18890Y20890
X26510Y20890
X26510Y23430
X26510Y25970
X26510Y28510
X15000Y8400
X22600Y8400
T11
X11011Y68103
X58643Y47792
X61917Y44830
X53424Y43896
X18170Y63707
X20186Y63863
X21953Y59244
X51630Y69516
X56122Y69516
X29835Y46878
X23252Y40373
X49691Y54170
X51470Y51507
T12
X22750Y51500
X25500Y36250
X22259Y32083
X33500Y16625
X39684Y33179
X31250Y53875
X25244Y56447
X22375Y72375
X25726Y51225
X31250Y35250
X59053Y42552
X61927Y72219
X36500Y34225
X58125Y40125
X61500Y59500
X62625Y60625
X57000Y61375
X49165Y62856
X41375Y56375
X28625Y45375
X28250Y35500
X29500Y39125
X66875Y62875
X51250Y62875
X47375Y55750
X37000Y45500
X51522Y57506
X34250Y15875
X33000Y19125
X32750Y15125
X35125Y16375
X56865Y20655
X38888Y21548
X42500Y15125
X34328Y20498
X51382Y15555
X43875Y18125
X36250Y20500
X22000Y38500
X67125Y54750
X50224Y18903
X35125Y19125
X55250Y16625
X32625Y16125
X67625Y65375
X58125Y60875
X50750Y39875
X41625Y35875
X40131Y50647
X48375Y55625
X45875Y69500
X24375Y70375
X20581Y69246
X23500Y64125
X44250Y24375
X21073Y30214
X20250Y15500
X37375Y11750
X70375Y56375
X69250Y55250
X21705Y63570
X63625Y55250
X28500Y40250
X33753Y41031
X38275Y41305
X40625Y40625
X7000Y15625
X58250Y46500
X53500Y47750
X31875Y56375
X29068Y19683
X19250Y41000
X17375Y32875
X37625Y23125
X40125Y16250
X25250Y66750
X12875Y61250
X10967Y55447
X16875Y48125
X21493Y33298
X43500Y25875
X17250Y62375
X17125Y57875
X21875Y64625
X67176Y56493
X39878Y72230
X56435Y72227
X30625Y56375
X31125Y52875
X31568Y65454
X34978Y72244
X46028Y71243
X53000Y60500
X57066Y59318
X30835Y38742
X32375Y35250
X32625Y45500
X44875Y56375
X50125Y62125
X62000Y62125
M30